<svg width="800" height="800" viewBox="0 0 800 800" fill="none" xmlns="http://www.w3.org/2000/svg">
<g clip-path="url(#clip0_2_2)">
<rect width="800" height="800" rx="83" fill="#1B1717"/>
<path d="M555.988 679.2C535.721 679.2 519.188 675.2 506.388 667.2C493.588 659.2 483.721 649.333 476.788 637.6C469.854 625.333 464.788 614.133 461.588 604L336.788 184.8C334.654 177.867 331.188 170.667 326.388 163.2C321.588 155.2 312.254 151.2 298.388 151.2C291.454 151.2 283.721 152.533 275.188 155.2C267.188 157.867 259.454 162.133 251.988 168C248.254 163.2 245.321 157.867 243.188 152C241.054 145.6 239.988 139.467 239.988 133.6C249.588 123.467 263.721 115.2 282.388 108.8C301.588 101.867 320.788 98.4 339.988 98.4C359.721 98.4 375.721 102.133 387.988 109.6C400.788 116.533 410.654 125.867 417.588 137.6C425.054 148.8 430.921 160.8 435.188 173.6L559.988 593.6C561.054 596.8 562.654 601.067 564.788 606.4C566.921 611.733 570.388 616.533 575.188 620.8C579.988 625.067 586.388 627.2 594.388 627.2C599.188 627.2 604.521 626.133 610.388 624C616.788 621.867 623.454 618.133 630.388 612.8C638.388 621.867 642.388 633.333 642.388 647.2C632.788 656.8 619.988 664.533 603.988 670.4C588.521 676.267 572.521 679.2 555.988 679.2ZM218.388 675.2C216.254 668.8 214.921 661.867 214.388 654.4C213.854 646.933 213.854 639.733 214.388 632.8C224.521 631.733 231.454 629.6 235.188 626.4C238.921 622.667 243.188 614.933 247.988 603.2C252.254 593.6 258.121 579.733 265.588 561.6C273.054 542.933 282.121 519.733 292.788 492C303.988 464.267 316.521 431.467 330.388 393.6C344.788 355.2 361.054 311.2 379.188 261.6L411.988 292.8C398.654 343.467 386.921 389.067 376.788 429.6C367.188 470.133 358.388 509.6 350.388 548C342.388 586.4 334.388 627.733 326.388 672C313.054 672 297.321 672 279.188 672C261.054 672.533 240.788 673.6 218.388 675.2Z" fill="white"/>
</g>
<defs>
<clipPath id="clip0_2_2">
<rect width="800" height="800" rx="83" fill="white"/>
</clipPath>
</defs>
</svg>
